<svg id="svg" version="1.1" width="400" height="344.4897959183673" viewBox="0 0 400 344.4897959183673" xmlns="http://www.w3.org/2000/svg" xmlns:xlink="http://www.w3.org/1999/xlink" ><g id="svgg"><path id="path0" d="M172.438 0.846 C 162.478 2.073,154.635 5.546,147.857 11.729 C 146.314 13.137,136.971 22.331,108.513 50.447 C 101.209 57.662,84.775 73.873,71.992 86.470 C 59.210 99.068,42.705 115.350,35.314 122.654 C 27.924 129.957,18.185 139.573,13.671 144.022 C 2.978 154.560,1.575 156.698,0.340 164.341 C -0.232 167.883,0.703 172.541,2.828 176.730 C 4.631 180.284,3.905 179.549,65.479 240.138 C 76.355 250.839,113.081 287.057,124.197 298.043 C 150.955 324.487,150.935 324.470,156.980 327.557 C 177.636 338.109,204.070 331.058,215.404 311.972 C 221.305 302.037,221.873 298.761,221.876 274.677 L 221.878 256.675 222.997 256.682 C 227.261 256.710,244.273 259.058,252.713 260.785 C 268.896 264.095,278.527 267.204,293.368 273.909 C 295.288 274.776,303.441 279.175,305.146 280.264 C 305.750 280.649,306.905 281.352,307.712 281.826 C 324.655 291.767,344.008 311.092,357.623 331.662 C 366.995 345.822,382.734 348.344,393.565 337.421 C 398.932 332.010,399.726 328.812,399.906 311.904 C 400.289 275.906,396.211 250.085,385.634 221.533 C 382.120 212.047,374.382 195.605,370.554 189.492 C 370.139 188.829,369.210 187.278,368.490 186.047 C 367.112 183.691,366.786 183.171,363.721 178.467 C 359.876 172.563,357.482 169.203,352.307 162.446 C 339.199 145.333,318.808 126.687,299.225 113.906 C 296.787 112.315,294.795 111.095,287.339 106.626 C 285.329 105.422,273.153 99.230,270.271 97.947 C 261.491 94.037,258.828 92.989,249.268 89.683 C 242.665 87.400,231.226 84.233,225.725 83.165 C 224.083 82.846,222.545 82.434,222.308 82.250 C 221.972 81.988,221.877 77.326,221.876 61.026 C 221.875 38.193,221.772 36.651,219.861 30.772 C 213.276 10.513,193.789 -1.784,172.438 0.846 M178.122 83.150 L 178.122 121.856 184.582 122.092 C 188.135 122.221,192.360 122.468,193.971 122.642 C 199.832 123.272,210.062 124.766,212.920 125.410 C 226.101 128.378,230.374 129.556,236.761 131.981 C 238.220 132.535,239.503 132.989,239.611 132.989 C 242.845 132.989,265.648 144.497,275.809 151.257 C 305.071 170.725,331.509 202.603,341.949 231.008 C 342.297 231.955,342.688 232.885,342.817 233.075 C 344.131 235.000,350.949 256.550,350.672 257.903 C 350.589 258.311,349.668 257.766,347.115 255.800 C 332.084 244.226,316.969 235.617,299.569 228.723 C 297.674 227.972,295.468 227.149,294.667 226.893 C 293.865 226.637,292.392 226.111,291.394 225.723 C 282.216 222.156,265.092 217.953,250.301 215.638 C 232.536 212.856,217.553 211.739,192.679 211.342 L 178.122 211.110 178.122 249.913 C 178.122 271.255,178.018 288.717,177.891 288.717 C 177.537 288.717,173.938 285.244,159.518 270.990 C 152.222 263.779,135.639 247.414,122.665 234.624 C 100.169 212.446,91.884 204.274,65.297 178.038 L 53.591 166.487 56.339 163.804 C 58.798 161.403,73.699 146.728,111.241 109.733 C 138.873 82.503,150.633 70.902,161.927 59.731 C 174.787 47.012,177.463 44.444,177.863 44.444 C 178.006 44.444,178.122 61.862,178.122 83.150 " stroke="none" fill="#ffffff" fill-rule="evenodd"></path></g></svg>