<svg id="svg" version="1.1" width="400" height="400" viewBox="0 0 400 400" xmlns="http://www.w3.org/2000/svg" xmlns:xlink="http://www.w3.org/1999/xlink" ><g id="svgg"><path id="path0" d="M154.829 2.684 C 154.295 2.789,153.454 3.139,152.960 3.463 C 152.368 3.851,150.511 4.130,147.530 4.278 C 144.292 4.440,142.799 4.679,142.296 5.117 C 141.852 5.504,140.341 5.830,138.200 6.000 C 135.901 6.183,134.570 6.484,134.072 6.935 C 133.573 7.386,132.626 7.600,131.122 7.600 C 129.522 7.600,128.629 7.819,127.903 8.391 C 127.310 8.857,125.934 9.293,124.549 9.453 C 123.257 9.603,121.840 9.950,121.400 10.225 C 120.960 10.500,119.520 10.949,118.200 11.224 C 116.880 11.498,115.239 12.055,114.553 12.461 C 113.867 12.868,112.742 13.200,112.053 13.200 C 111.333 13.200,110.459 13.541,110.000 14.000 C 109.560 14.440,108.828 14.800,108.374 14.800 C 107.457 14.800,106.102 15.441,105.280 16.263 C 104.984 16.558,104.259 16.800,103.668 16.800 C 103.026 16.800,102.391 17.122,102.093 17.600 C 101.818 18.040,101.259 18.400,100.851 18.400 C 100.442 18.400,99.664 18.749,99.122 19.175 C 98.580 19.602,97.663 20.069,97.085 20.214 C 96.506 20.360,95.823 20.731,95.567 21.039 C 95.311 21.348,94.806 21.600,94.444 21.600 C 94.082 21.600,93.123 22.050,92.314 22.600 C 91.505 23.150,90.577 23.600,90.252 23.600 C 89.927 23.600,89.127 24.050,88.473 24.600 C 87.819 25.150,86.905 25.600,86.442 25.600 C 85.979 25.600,85.600 25.783,85.600 26.006 C 85.600 26.230,84.931 26.725,84.112 27.106 C 83.294 27.488,82.349 28.032,82.012 28.315 C 79.850 30.132,78.783 30.800,78.042 30.800 C 77.579 30.800,77.200 31.052,77.200 31.360 C 77.200 31.669,76.615 32.289,75.900 32.738 C 75.185 33.188,73.880 34.103,73.000 34.771 C 72.120 35.439,71.130 36.108,70.800 36.258 C 70.470 36.408,69.930 36.776,69.600 37.076 C 68.589 37.997,66.239 39.589,65.513 39.844 C 65.136 39.977,64.718 40.427,64.586 40.843 C 64.454 41.259,63.998 41.600,63.573 41.600 C 63.148 41.600,62.800 41.804,62.800 42.053 C 62.800 42.583,60.116 45.200,59.572 45.200 C 59.367 45.200,59.200 45.470,59.200 45.800 C 59.200 46.130,59.027 46.400,58.816 46.400 C 58.049 46.400,45.200 59.080,45.200 59.837 C 45.200 60.213,42.417 62.800,42.013 62.800 C 41.786 62.800,41.600 63.177,41.600 63.637 C 41.600 64.138,41.279 64.559,40.800 64.684 C 40.360 64.799,40.000 65.132,40.000 65.424 C 40.000 65.716,39.685 66.190,39.300 66.477 C 38.915 66.765,38.288 67.675,37.906 68.500 C 37.525 69.325,37.030 70.000,36.806 70.000 C 36.583 70.000,36.400 70.197,36.400 70.437 C 36.400 70.677,36.030 71.352,35.579 71.937 C 35.127 72.522,34.224 73.720,33.572 74.600 C 32.921 75.480,32.114 76.560,31.780 77.000 C 30.624 78.521,29.200 80.837,29.200 81.195 C 29.200 81.393,28.853 81.798,28.428 82.095 C 28.004 82.393,27.531 83.135,27.378 83.746 C 27.225 84.357,26.762 85.067,26.350 85.324 C 25.937 85.582,25.600 86.128,25.600 86.538 C 25.600 86.949,25.150 87.819,24.600 88.473 C 24.050 89.127,23.600 89.973,23.600 90.353 C 23.600 90.733,23.150 91.655,22.600 92.400 C 22.050 93.145,21.600 94.058,21.600 94.429 C 21.600 94.799,21.348 95.311,21.039 95.567 C 20.731 95.823,20.360 96.506,20.214 97.085 C 20.069 97.663,19.602 98.580,19.175 99.122 C 18.749 99.664,18.400 100.442,18.400 100.851 C 18.400 101.259,18.040 101.818,17.600 102.093 C 17.132 102.385,16.800 103.026,16.800 103.635 C 16.800 104.208,16.440 105.093,16.000 105.600 C 15.560 106.107,15.200 106.864,15.200 107.281 C 15.200 108.260,14.095 110.400,13.590 110.400 C 13.375 110.400,13.200 111.151,13.200 112.069 C 13.200 113.042,12.931 114.034,12.555 114.450 C 12.200 114.842,11.655 116.381,11.343 117.871 C 11.030 119.360,10.538 120.944,10.250 121.389 C 9.961 121.835,9.619 123.235,9.491 124.500 C 9.345 125.936,8.946 127.196,8.429 127.854 C 7.807 128.645,7.600 129.487,7.600 131.225 C 7.600 132.857,7.402 133.741,6.932 134.211 C 6.469 134.674,6.182 135.911,5.997 138.236 C 5.829 140.348,5.503 141.854,5.117 142.296 C 4.679 142.799,4.440 144.292,4.278 147.530 C 4.107 150.974,3.878 152.317,3.326 153.130 C 2.067 154.985,1.999 189.975,3.249 192.681 C 3.945 194.187,4.175 195.569,4.318 199.100 C 4.419 201.575,4.640 203.600,4.811 203.600 C 5.385 203.600,6.000 206.100,6.000 208.431 C 6.000 210.015,6.201 210.944,6.639 211.382 C 7.011 211.754,7.427 213.213,7.636 214.876 C 7.833 216.446,8.260 218.024,8.584 218.382 C 8.908 218.741,9.293 220.106,9.440 221.417 C 9.586 222.728,9.940 224.070,10.225 224.400 C 10.510 224.730,10.971 226.260,11.248 227.800 C 11.526 229.340,11.854 230.690,11.977 230.800 C 12.659 231.411,13.200 232.980,13.200 234.348 C 13.200 235.540,13.378 235.953,13.957 236.105 C 14.475 236.240,14.799 236.813,14.988 237.928 C 15.139 238.822,15.514 239.762,15.821 240.017 C 16.128 240.272,16.491 241.081,16.629 241.814 C 16.767 242.548,17.221 243.457,17.640 243.836 C 18.058 244.214,18.400 244.848,18.400 245.244 C 18.400 245.640,18.850 246.628,19.400 247.438 C 19.950 248.249,20.400 249.247,20.400 249.656 C 20.400 250.065,20.584 250.400,20.810 250.400 C 21.035 250.400,21.394 250.859,21.607 251.420 C 21.821 251.980,22.446 253.393,22.998 254.558 C 23.549 255.724,24.000 256.795,24.000 256.939 C 24.000 257.082,24.360 257.560,24.800 258.000 C 25.240 258.440,25.600 259.229,25.600 259.753 C 25.600 260.352,25.881 260.780,26.358 260.905 C 26.809 261.023,27.228 261.615,27.394 262.371 C 27.547 263.068,28.016 263.853,28.436 264.115 C 28.856 264.378,29.200 264.900,29.200 265.276 C 29.200 265.652,29.467 266.110,29.794 266.293 C 30.556 266.719,32.800 270.244,32.800 271.014 C 32.800 271.336,33.076 271.600,33.413 271.600 C 33.749 271.600,34.140 271.915,34.281 272.300 C 34.421 272.685,34.956 273.430,35.468 273.955 C 35.981 274.480,36.400 275.201,36.400 275.558 C 36.400 275.915,36.760 276.432,37.200 276.707 C 37.640 276.982,38.000 277.469,38.000 277.789 C 38.000 278.110,38.360 278.565,38.800 278.800 C 39.240 279.035,39.600 279.428,39.600 279.672 C 39.600 279.916,39.962 280.495,40.404 280.958 C 42.502 283.157,43.600 284.566,43.600 285.059 C 43.600 285.357,43.960 285.600,44.400 285.600 C 44.840 285.600,45.200 285.785,45.200 286.011 C 45.200 286.369,45.983 287.257,49.613 291.014 C 50.046 291.462,50.400 292.047,50.400 292.314 C 50.400 292.581,50.586 292.800,50.813 292.800 C 51.351 292.800,54.000 295.449,54.000 295.987 C 54.000 296.214,54.360 296.400,54.800 296.400 C 55.249 296.400,55.600 296.667,55.600 297.009 C 55.600 297.343,56.050 297.822,56.600 298.073 C 57.150 298.323,57.600 298.749,57.600 299.018 C 57.600 299.287,57.973 299.604,58.430 299.724 C 58.886 299.843,59.357 300.314,59.476 300.770 C 59.596 301.227,59.934 301.600,60.228 301.600 C 60.523 301.600,61.191 302.005,61.714 302.500 C 62.237 302.995,63.255 303.850,63.976 304.400 C 64.697 304.950,66.100 306.165,67.094 307.100 C 68.087 308.035,69.135 308.800,69.423 308.800 C 69.711 308.800,70.056 309.147,70.191 309.572 C 70.329 310.006,70.955 310.458,71.621 310.605 C 72.273 310.748,72.991 311.210,73.217 311.633 C 73.443 312.055,73.970 312.400,74.387 312.400 C 74.805 312.400,75.260 312.760,75.400 313.200 C 75.540 313.640,76.002 314.000,76.427 314.000 C 76.852 314.000,77.567 314.367,78.016 314.816 C 78.465 315.265,79.275 315.800,79.816 316.006 C 80.357 316.212,80.800 316.655,80.800 316.990 C 80.800 317.362,81.163 317.600,81.730 317.600 C 82.242 317.600,83.083 318.050,83.600 318.600 C 84.117 319.150,84.868 319.600,85.270 319.600 C 85.671 319.600,86.000 319.789,86.000 320.020 C 86.000 320.252,86.675 320.721,87.500 321.063 C 88.325 321.406,89.144 321.937,89.320 322.243 C 89.496 322.549,89.904 322.800,90.227 322.800 C 90.551 322.800,91.827 323.340,93.064 324.000 C 94.301 324.660,95.535 325.200,95.807 325.200 C 96.079 325.200,96.517 325.458,96.779 325.774 C 97.041 326.090,97.828 326.471,98.528 326.621 C 99.227 326.771,100.122 327.232,100.516 327.647 C 100.909 328.061,101.646 328.400,102.154 328.400 C 102.661 328.400,103.382 328.738,103.755 329.150 C 104.129 329.563,105.079 330.005,105.867 330.133 C 106.655 330.261,107.592 330.612,107.950 330.914 C 108.307 331.215,109.375 331.683,110.321 331.953 C 111.268 332.224,112.142 332.705,112.264 333.022 C 112.404 333.387,113.052 333.600,114.020 333.600 C 115.055 333.600,115.725 333.840,116.077 334.336 C 116.432 334.837,117.346 335.159,118.924 335.343 C 120.202 335.491,121.642 335.862,122.124 336.167 C 122.606 336.471,124.350 336.947,126.000 337.224 C 127.650 337.501,129.470 337.961,130.045 338.246 C 130.620 338.531,132.420 338.934,134.045 339.141 C 135.670 339.348,137.540 339.805,138.200 340.157 C 138.970 340.566,140.410 340.796,142.215 340.798 C 144.157 340.799,145.480 341.029,146.476 341.537 C 147.614 342.117,149.288 342.332,154.343 342.549 C 158.852 342.741,161.276 343.023,162.482 343.494 C 165.063 344.502,180.642 344.511,183.094 343.505 C 184.322 343.002,186.526 342.737,191.094 342.543 C 195.681 342.348,197.655 342.110,198.334 341.670 C 198.906 341.299,200.533 341.004,202.534 340.910 C 204.551 340.814,206.412 340.475,207.400 340.024 C 208.280 339.621,210.252 339.172,211.783 339.026 C 213.313 338.880,214.770 338.591,215.020 338.383 C 215.270 338.176,217.121 337.668,219.133 337.256 C 221.145 336.843,223.023 336.313,223.306 336.078 C 223.588 335.844,224.805 335.525,226.010 335.371 C 227.328 335.203,228.485 334.794,228.916 334.346 C 229.331 333.913,230.186 333.600,230.954 333.600 C 231.745 333.600,232.552 333.295,232.964 332.840 C 233.343 332.421,234.306 331.957,235.105 331.807 C 235.904 331.657,236.996 331.189,237.533 330.767 C 238.069 330.345,238.906 330.000,239.392 330.000 C 239.878 330.000,240.602 329.640,241.000 329.200 C 241.398 328.760,242.229 328.400,242.846 328.400 C 243.464 328.400,244.291 328.055,244.684 327.632 C 245.078 327.210,245.940 326.735,246.600 326.576 C 247.260 326.417,248.122 325.953,248.516 325.544 C 248.909 325.135,249.661 324.800,250.187 324.800 C 250.713 324.800,251.384 324.558,251.680 324.263 C 252.489 323.454,253.853 322.800,254.731 322.800 C 255.162 322.800,255.614 322.539,255.737 322.221 C 255.859 321.902,256.688 321.446,257.579 321.206 C 258.471 320.966,259.205 320.551,259.210 320.285 C 259.223 319.671,261.945 318.400,263.244 318.400 C 263.988 318.400,266.110 320.297,272.013 326.242 C 276.296 330.555,280.403 334.650,281.139 335.342 C 281.876 336.034,284.666 338.800,287.339 341.489 C 290.013 344.178,293.888 348.048,295.952 350.089 C 298.016 352.130,302.066 356.218,304.952 359.173 C 307.838 362.129,310.993 365.279,311.963 366.173 C 315.315 369.267,330.894 385.003,331.492 385.900 C 331.822 386.395,332.220 386.800,332.377 386.800 C 332.533 386.800,333.548 387.618,334.631 388.619 C 336.636 390.471,337.514 391.061,340.000 392.229 C 340.770 392.590,341.532 393.116,341.694 393.397 C 341.856 393.679,342.631 394.029,343.415 394.176 C 344.200 394.324,344.934 394.682,345.045 394.974 C 345.157 395.265,346.145 395.622,347.240 395.768 C 348.396 395.921,349.561 396.361,350.016 396.816 C 351.209 398.009,367.892 398.024,368.970 396.833 C 369.377 396.383,370.477 395.954,371.632 395.796 C 372.714 395.647,373.600 395.391,373.600 395.227 C 373.600 394.814,375.470 394.000,376.419 394.000 C 376.848 394.000,377.200 393.811,377.200 393.580 C 377.200 393.348,377.834 392.894,378.609 392.570 C 379.384 392.247,380.374 391.626,380.809 391.191 C 381.244 390.756,381.948 390.400,382.373 390.400 C 382.798 390.400,383.260 390.040,383.400 389.600 C 383.540 389.160,384.002 388.800,384.427 388.800 C 384.852 388.800,385.200 388.526,385.200 388.191 C 385.200 387.857,385.650 387.378,386.200 387.127 C 386.750 386.877,387.200 386.414,387.200 386.098 C 387.200 385.783,387.560 385.431,388.000 385.316 C 388.440 385.201,388.800 384.859,388.800 384.557 C 388.800 384.254,389.160 383.782,389.600 383.507 C 390.040 383.232,390.400 382.736,390.400 382.404 C 390.401 382.072,390.851 381.277,391.400 380.638 C 391.950 379.999,392.400 379.306,392.400 379.100 C 392.400 378.893,392.734 378.246,393.142 377.662 C 393.550 377.078,394.000 376.118,394.142 375.528 C 394.285 374.938,394.656 374.201,394.967 373.890 C 395.278 373.579,395.656 372.498,395.808 371.487 C 395.960 370.476,396.425 369.340,396.842 368.962 C 398.025 367.891,398.002 351.202,396.816 350.016 C 396.361 349.561,395.921 348.396,395.768 347.240 C 395.622 346.145,395.265 345.157,394.974 345.045 C 394.682 344.934,394.325 344.209,394.180 343.435 C 394.035 342.662,393.655 341.811,393.335 341.546 C 393.015 341.281,392.498 340.509,392.185 339.832 C 391.206 337.713,387.615 332.963,386.032 331.693 C 385.190 331.018,368.245 314.175,366.169 311.949 C 365.272 310.987,362.122 307.822,359.169 304.916 C 356.216 302.009,352.141 297.959,350.113 295.916 C 348.085 293.872,345.295 291.105,343.913 289.767 C 342.531 288.430,339.747 285.640,337.727 283.567 C 335.706 281.495,330.532 276.290,326.227 272.000 C 319.264 265.061,318.400 264.057,318.400 262.900 C 318.400 262.185,318.566 261.600,318.768 261.600 C 318.971 261.600,319.253 261.068,319.396 260.418 C 319.542 259.755,319.995 259.129,320.428 258.991 C 320.912 258.838,321.200 258.383,321.200 257.773 C 321.200 257.238,321.551 256.449,321.979 256.021 C 322.407 255.593,322.954 254.513,323.194 253.621 C 323.434 252.729,323.781 252.000,323.963 252.000 C 324.146 252.000,324.520 251.202,324.793 250.226 C 325.066 249.250,325.517 248.364,325.794 248.258 C 326.072 248.151,326.412 247.459,326.551 246.719 C 326.690 245.980,327.163 245.067,327.602 244.691 C 328.053 244.305,328.400 243.512,328.400 242.866 C 328.400 242.232,328.756 241.402,329.200 241.000 C 329.640 240.602,330.000 239.878,330.000 239.392 C 330.000 238.906,330.334 238.079,330.742 237.554 C 331.150 237.029,331.610 235.915,331.765 235.077 C 331.919 234.239,332.395 233.254,332.822 232.888 C 333.295 232.483,333.600 231.715,333.600 230.927 C 333.600 230.185,333.919 229.325,334.346 228.916 C 334.793 228.487,335.203 227.330,335.369 226.029 C 335.522 224.835,335.970 223.395,336.365 222.829 C 336.766 222.256,337.197 220.677,337.339 219.266 C 337.480 217.872,337.871 216.150,338.209 215.438 C 338.546 214.726,338.974 212.791,339.160 211.136 C 339.346 209.482,339.769 207.695,340.102 207.164 C 340.459 206.594,340.800 204.750,340.937 202.655 C 341.064 200.702,341.416 198.725,341.721 198.255 C 342.090 197.685,342.363 195.465,342.539 191.600 C 342.684 188.410,342.996 185.080,343.233 184.200 C 344.622 179.040,344.741 166.268,343.439 162.246 C 343.042 161.021,342.707 157.962,342.541 154.046 C 342.353 149.637,342.104 147.536,341.694 146.903 C 341.355 146.380,341.022 144.544,340.898 142.503 C 340.757 140.210,340.427 138.518,339.942 137.606 C 339.509 136.793,339.196 135.376,339.191 134.206 C 339.186 133.087,338.836 131.437,338.400 130.476 C 337.969 129.527,337.498 127.547,337.352 126.076 C 337.196 124.509,336.782 122.966,336.353 122.352 C 335.949 121.775,335.496 120.245,335.346 118.952 C 335.160 117.349,334.838 116.434,334.336 116.077 C 333.840 115.725,333.600 115.055,333.600 114.020 C 333.600 113.052,333.387 112.404,333.022 112.264 C 332.705 112.142,332.224 111.268,331.953 110.321 C 331.683 109.375,331.215 108.307,330.914 107.950 C 330.612 107.592,330.261 106.655,330.133 105.867 C 330.005 105.079,329.563 104.129,329.150 103.755 C 328.738 103.382,328.400 102.678,328.400 102.192 C 328.400 101.706,328.038 100.848,327.596 100.286 C 327.155 99.725,326.684 98.722,326.552 98.058 C 326.419 97.394,326.088 96.766,325.817 96.662 C 325.546 96.558,325.093 95.646,324.810 94.636 C 324.527 93.626,324.153 92.800,323.979 92.800 C 323.805 92.800,323.444 92.125,323.178 91.300 C 322.912 90.475,322.358 89.478,321.947 89.084 C 321.536 88.691,321.200 87.938,321.200 87.411 C 321.200 86.805,320.906 86.361,320.400 86.200 C 319.960 86.060,319.600 85.630,319.600 85.243 C 319.600 84.856,319.150 84.117,318.600 83.600 C 318.050 83.083,317.600 82.242,317.600 81.730 C 317.600 81.163,317.362 80.800,316.990 80.800 C 316.655 80.800,316.212 80.357,316.006 79.816 C 315.800 79.275,315.265 78.465,314.816 78.016 C 314.367 77.567,314.000 76.859,314.000 76.443 C 314.000 76.026,313.727 75.581,313.394 75.453 C 313.061 75.325,312.615 74.766,312.404 74.210 C 312.193 73.655,311.857 73.200,311.658 73.200 C 311.460 73.200,311.059 72.615,310.769 71.900 C 310.478 71.185,309.916 70.365,309.520 70.077 C 309.124 69.790,308.800 69.392,308.800 69.193 C 308.800 68.995,308.080 68.098,307.200 67.200 C 306.320 66.302,305.600 65.404,305.600 65.204 C 305.600 65.004,305.351 64.696,305.046 64.520 C 304.371 64.130,301.600 60.530,301.600 60.043 C 301.600 59.851,301.227 59.596,300.770 59.476 C 300.314 59.357,299.843 58.886,299.724 58.430 C 299.604 57.973,299.287 57.600,299.018 57.600 C 298.749 57.600,298.323 57.150,298.073 56.600 C 297.822 56.050,297.343 55.600,297.009 55.600 C 296.667 55.600,296.400 55.249,296.400 54.800 C 296.400 54.360,296.214 54.000,295.987 54.000 C 295.449 54.000,292.800 51.351,292.800 50.813 C 292.800 50.586,292.536 50.400,292.214 50.400 C 291.892 50.400,291.442 50.052,291.214 49.627 C 290.987 49.202,290.441 48.740,290.000 48.600 C 289.560 48.460,289.200 48.117,289.200 47.837 C 289.200 47.557,288.750 47.123,288.200 46.873 C 287.650 46.622,287.200 46.164,287.200 45.855 C 287.200 45.546,286.840 45.199,286.400 45.084 C 285.960 44.969,285.600 44.588,285.600 44.237 C 285.600 43.887,285.343 43.600,285.029 43.600 C 284.715 43.600,284.104 43.150,283.671 42.600 C 283.239 42.050,282.705 41.600,282.484 41.600 C 282.264 41.600,281.660 41.153,281.142 40.607 C 280.624 40.061,279.981 39.611,279.714 39.607 C 279.447 39.603,279.035 39.240,278.800 38.800 C 278.565 38.360,278.118 38.000,277.809 38.000 C 277.499 38.000,277.010 37.676,276.723 37.280 C 276.435 36.884,275.615 36.322,274.900 36.031 C 274.185 35.741,273.600 35.340,273.600 35.142 C 273.600 34.943,273.150 34.609,272.600 34.400 C 272.050 34.191,271.600 33.745,271.600 33.410 C 271.600 33.074,271.302 32.800,270.938 32.800 C 270.574 32.800,269.686 32.350,268.964 31.800 C 268.243 31.250,267.468 30.800,267.241 30.800 C 267.014 30.800,266.635 30.440,266.400 30.000 C 266.165 29.560,265.730 29.200,265.435 29.200 C 265.140 29.200,264.665 28.920,264.381 28.577 C 264.096 28.234,263.262 27.702,262.526 27.395 C 261.791 27.088,261.082 26.558,260.952 26.218 C 260.821 25.878,260.318 25.600,259.833 25.600 C 259.348 25.600,258.564 25.240,258.092 24.800 C 257.620 24.360,257.105 24.000,256.948 24.000 C 256.506 24.000,251.474 21.539,250.800 20.993 C 250.470 20.726,249.738 20.398,249.174 20.265 C 248.609 20.131,247.727 19.657,247.213 19.211 C 246.698 18.765,245.883 18.400,245.401 18.400 C 244.919 18.400,244.214 18.058,243.836 17.640 C 243.457 17.221,242.554 16.768,241.829 16.632 C 241.103 16.496,240.187 16.028,239.793 15.592 C 239.343 15.095,238.563 14.800,237.701 14.800 C 236.662 14.800,236.274 14.604,236.116 14.000 C 235.955 13.386,235.570 13.200,234.453 13.199 C 233.654 13.198,232.460 12.874,231.800 12.480 C 231.140 12.086,229.340 11.524,227.800 11.231 C 226.260 10.938,224.730 10.476,224.400 10.203 C 224.070 9.930,222.832 9.599,221.649 9.466 C 220.467 9.334,219.056 8.935,218.514 8.580 C 217.972 8.225,216.510 7.838,215.264 7.721 C 214.019 7.603,212.550 7.217,212.000 6.863 C 211.424 6.493,209.689 6.119,207.911 5.982 C 205.969 5.832,204.558 5.511,204.111 5.118 C 203.587 4.657,202.225 4.446,198.939 4.318 C 195.392 4.179,194.245 3.985,193.339 3.372 C 192.237 2.625,158.229 2.018,154.829 2.684 M188.884 53.244 C 191.148 53.488,193.306 53.850,193.680 54.048 C 194.054 54.245,195.764 54.520,197.480 54.659 C 199.196 54.798,201.140 55.189,201.800 55.528 C 202.460 55.867,203.961 56.279,205.136 56.443 C 206.310 56.607,207.570 57.000,207.936 57.318 C 208.301 57.635,209.379 57.993,210.331 58.114 C 211.283 58.234,212.368 58.609,212.741 58.947 C 213.115 59.285,214.188 59.685,215.125 59.834 C 216.177 60.003,216.982 60.392,217.229 60.853 C 217.499 61.358,218.070 61.600,218.991 61.600 C 219.870 61.600,220.541 61.866,220.879 62.348 C 221.168 62.761,222.149 63.222,223.070 63.378 C 223.987 63.533,224.826 63.891,224.935 64.174 C 225.043 64.457,225.932 64.889,226.910 65.136 C 227.888 65.382,228.915 65.857,229.193 66.192 C 229.471 66.526,230.022 66.800,230.418 66.800 C 230.814 66.800,231.647 67.212,232.269 67.716 C 232.891 68.219,233.895 68.845,234.500 69.107 C 235.105 69.369,235.600 69.767,235.600 69.991 C 235.600 70.216,235.969 70.400,236.419 70.400 C 236.870 70.400,237.655 70.850,238.165 71.400 C 238.675 71.950,239.403 72.400,239.783 72.400 C 240.164 72.400,240.569 72.760,240.684 73.200 C 240.799 73.640,241.159 74.000,241.483 74.000 C 242.112 74.000,243.872 75.221,245.377 76.700 C 245.880 77.195,246.487 77.600,246.726 77.600 C 246.965 77.600,247.304 77.854,247.480 78.165 C 247.656 78.475,248.731 79.368,249.869 80.150 C 251.006 80.931,252.651 82.270,253.523 83.125 C 254.396 83.980,255.400 84.791,255.755 84.927 C 256.110 85.063,256.400 85.422,256.400 85.723 C 256.400 86.025,256.850 86.477,257.400 86.727 C 257.950 86.978,258.400 87.353,258.400 87.562 C 258.400 87.771,259.975 89.563,261.900 91.545 C 266.654 96.440,267.600 97.530,267.600 98.111 C 267.600 98.384,267.960 98.832,268.400 99.107 C 268.840 99.382,269.200 99.797,269.200 100.030 C 269.200 100.263,269.650 101.043,270.200 101.764 C 270.750 102.486,271.200 103.277,271.200 103.524 C 271.200 103.770,271.560 104.165,272.000 104.400 C 272.440 104.635,272.800 105.085,272.800 105.400 C 272.800 105.715,273.160 106.165,273.600 106.400 C 274.040 106.635,274.400 107.014,274.400 107.241 C 274.400 107.468,274.850 108.243,275.400 108.964 C 275.950 109.686,276.400 110.574,276.400 110.938 C 276.400 111.302,276.589 111.600,276.820 111.600 C 277.052 111.600,277.521 112.275,277.863 113.100 C 278.206 113.925,278.737 114.744,279.043 114.920 C 279.349 115.096,279.600 115.556,279.600 115.942 C 279.600 116.328,280.050 117.255,280.600 118.000 C 281.150 118.745,281.600 119.833,281.600 120.416 C 281.600 120.999,281.947 121.790,282.371 122.174 C 282.795 122.557,283.266 123.605,283.417 124.502 C 283.569 125.399,284.032 126.497,284.446 126.942 C 284.878 127.406,285.200 128.332,285.200 129.111 C 285.200 129.994,285.485 130.705,286.012 131.136 C 286.464 131.505,286.932 132.510,287.066 133.400 C 287.199 134.280,287.575 135.308,287.901 135.684 C 288.228 136.060,288.588 137.230,288.703 138.284 C 288.817 139.338,289.246 140.678,289.656 141.262 C 290.164 141.986,290.400 143.025,290.400 144.533 C 290.400 146.065,290.605 146.948,291.069 147.412 C 291.536 147.879,291.849 149.246,292.105 151.940 C 292.307 154.063,292.656 156.144,292.880 156.564 C 294.126 158.903,294.251 184.796,293.035 188.488 C 292.724 189.429,292.349 191.730,292.202 193.600 C 292.037 195.683,291.636 197.586,291.167 198.512 C 290.717 199.400,290.400 200.846,290.400 202.012 C 290.400 203.417,290.182 204.218,289.656 204.744 C 289.195 205.205,288.835 206.293,288.709 207.611 C 288.583 208.922,288.255 209.917,287.852 210.211 C 287.494 210.474,287.200 211.136,287.200 211.684 C 287.200 213.132,286.434 215.101,285.772 215.355 C 285.408 215.495,285.200 216.156,285.200 217.173 C 285.200 218.329,284.991 218.883,284.447 219.175 C 283.965 219.433,283.598 220.218,283.427 221.361 C 283.280 222.341,282.832 223.561,282.432 224.072 C 282.032 224.582,281.579 225.573,281.426 226.272 C 281.274 226.972,280.902 227.750,280.600 228.000 C 280.298 228.250,279.940 228.964,279.803 229.586 C 279.666 230.208,279.215 231.024,278.800 231.400 C 278.385 231.776,277.928 232.616,277.785 233.269 C 277.642 233.921,277.288 234.545,276.998 234.656 C 276.709 234.767,276.366 235.283,276.235 235.802 C 276.105 236.322,275.639 236.861,275.199 237.000 C 274.760 237.140,274.400 237.532,274.400 237.871 C 274.400 238.615,272.003 242.400,271.533 242.400 C 271.350 242.400,271.200 242.671,271.200 243.003 C 271.200 243.334,270.750 243.997,270.200 244.475 C 269.650 244.953,269.200 245.554,269.200 245.810 C 269.200 246.066,268.819 246.619,268.354 247.038 C 267.889 247.457,267.353 248.205,267.164 248.700 C 266.975 249.195,266.545 249.600,266.210 249.600 C 265.874 249.600,265.600 249.890,265.600 250.245 C 265.600 250.949,259.952 256.800,259.272 256.800 C 259.042 256.800,258.743 257.151,258.606 257.580 C 258.470 258.008,258.008 258.470,257.580 258.606 C 257.151 258.743,256.800 259.042,256.800 259.272 C 256.800 259.952,250.949 265.600,250.245 265.600 C 249.890 265.600,249.600 265.860,249.600 266.178 C 249.600 266.496,249.175 266.991,248.656 267.278 C 246.600 268.414,244.400 270.031,244.400 270.405 C 244.400 270.622,244.106 270.800,243.746 270.800 C 243.386 270.800,242.680 271.205,242.177 271.700 C 240.508 273.341,238.884 274.400,238.037 274.400 C 237.547 274.400,237.200 274.658,237.200 275.020 C 237.200 275.362,236.570 275.904,235.800 276.226 C 235.030 276.548,234.400 276.974,234.400 277.174 C 234.400 277.373,233.879 277.651,233.241 277.791 C 232.604 277.931,231.776 278.385,231.400 278.800 C 231.024 279.215,230.208 279.666,229.586 279.803 C 228.964 279.940,228.250 280.298,228.000 280.600 C 227.750 280.902,227.053 281.257,226.451 281.389 C 225.850 281.521,224.482 282.072,223.411 282.614 C 222.340 283.157,221.085 283.600,220.621 283.600 C 220.157 283.600,219.470 283.960,219.093 284.400 C 218.653 284.914,217.913 285.200,217.024 285.200 C 216.168 285.200,215.502 285.446,215.279 285.844 C 215.076 286.208,214.016 286.652,212.837 286.866 C 211.693 287.074,210.406 287.594,209.978 288.022 C 209.431 288.569,208.649 288.800,207.344 288.800 C 206.059 288.800,205.335 289.009,204.991 289.480 C 204.641 289.959,203.636 290.239,201.604 290.425 C 199.978 290.574,198.579 290.910,198.404 291.194 C 198.217 291.497,196.273 291.901,193.546 292.206 C 191.046 292.485,188.460 292.945,187.800 293.229 C 185.832 294.076,160.503 293.982,157.600 293.118 C 156.390 292.758,153.750 292.296,151.732 292.092 C 149.248 291.841,147.851 291.508,147.404 291.061 C 146.943 290.600,146.048 290.400,144.447 290.400 C 142.764 290.400,141.938 290.202,141.355 289.659 C 140.885 289.220,139.726 288.837,138.523 288.721 C 137.283 288.602,136.057 288.188,135.389 287.663 C 134.764 287.171,133.719 286.800,132.960 286.800 C 132.038 286.800,131.497 286.554,131.200 286.000 C 130.922 285.481,130.362 285.200,129.605 285.200 C 128.352 285.200,126.400 284.458,126.400 283.981 C 126.400 283.822,125.611 283.572,124.646 283.428 C 123.681 283.283,122.574 282.813,122.184 282.382 C 121.795 281.952,120.999 281.600,120.416 281.600 C 119.833 281.600,118.745 281.150,118.000 280.600 C 117.255 280.050,116.320 279.600,115.922 279.600 C 115.525 279.600,115.200 279.414,115.200 279.186 C 115.200 278.958,114.390 278.424,113.400 278.000 C 112.410 277.576,111.600 277.042,111.600 276.814 C 111.600 276.586,111.302 276.400,110.938 276.400 C 110.574 276.400,109.719 275.982,109.038 275.471 C 108.357 274.959,107.485 274.425,107.100 274.283 C 106.715 274.141,106.400 273.749,106.400 273.413 C 106.400 273.064,106.050 272.800,105.587 272.800 C 105.141 272.800,104.668 272.522,104.538 272.183 C 104.408 271.844,103.604 271.210,102.751 270.775 C 101.898 270.340,101.200 269.807,101.200 269.592 C 101.200 269.376,100.930 269.200,100.600 269.200 C 100.270 269.200,99.640 268.840,99.200 268.400 C 98.760 267.960,98.250 267.600,98.068 267.600 C 97.762 267.600,95.123 265.374,92.259 262.700 C 91.611 262.095,90.928 261.600,90.741 261.600 C 90.553 261.600,90.400 261.402,90.400 261.160 C 90.400 260.643,88.082 258.400,87.548 258.400 C 87.346 258.400,87.009 257.950,86.800 257.400 C 86.591 256.850,86.145 256.400,85.810 256.400 C 85.474 256.400,85.200 256.247,85.200 256.060 C 85.200 255.872,84.345 254.796,83.300 253.668 C 82.255 252.539,80.950 250.960,80.400 250.158 C 79.850 249.356,78.995 248.297,78.500 247.804 C 78.005 247.311,77.600 246.770,77.600 246.600 C 77.600 246.430,77.195 245.880,76.700 245.377 C 75.206 243.857,74.000 242.110,74.000 241.464 C 74.000 241.128,73.640 240.740,73.200 240.600 C 72.760 240.460,72.397 240.043,72.393 239.673 C 72.389 239.303,71.939 238.576,71.393 238.058 C 70.847 237.540,70.400 236.775,70.400 236.358 C 70.400 235.941,70.211 235.600,69.980 235.600 C 69.748 235.600,69.309 235.001,69.003 234.268 C 68.697 233.536,68.166 232.704,67.823 232.419 C 67.480 232.135,67.200 231.599,67.200 231.229 C 67.200 230.858,66.750 229.945,66.200 229.200 C 65.650 228.455,65.200 227.350,65.200 226.745 C 65.200 226.107,64.871 225.415,64.417 225.097 C 63.957 224.775,63.521 223.849,63.363 222.859 C 63.197 221.821,62.806 221.017,62.347 220.771 C 61.841 220.501,61.600 219.930,61.600 219.000 C 61.600 218.066,61.360 217.500,60.847 217.225 C 60.365 216.967,59.998 216.182,59.827 215.044 C 59.681 214.066,59.308 213.056,59.000 212.800 C 58.692 212.544,58.318 211.494,58.171 210.467 C 58.023 209.440,57.633 208.292,57.304 207.916 C 56.975 207.540,56.618 206.370,56.512 205.316 C 56.406 204.262,55.996 202.680,55.602 201.800 C 55.208 200.920,54.773 198.878,54.636 197.262 C 54.499 195.646,54.219 194.010,54.014 193.627 C 52.767 191.296,52.427 160.265,53.591 155.000 C 53.835 153.900,54.271 151.267,54.560 149.148 C 54.851 147.028,55.383 144.875,55.744 144.359 C 56.123 143.817,56.400 142.639,56.400 141.565 C 56.400 140.370,56.663 139.368,57.139 138.754 C 57.546 138.229,57.997 136.900,58.142 135.800 C 58.287 134.700,58.651 133.617,58.952 133.393 C 59.252 133.169,59.627 132.222,59.785 131.288 C 59.963 130.235,60.363 129.434,60.836 129.181 C 61.365 128.898,61.600 128.340,61.600 127.369 C 61.600 126.543,61.913 125.631,62.362 125.149 C 62.781 124.699,63.241 123.706,63.384 122.942 C 63.528 122.179,63.995 121.254,64.422 120.888 C 64.850 120.522,65.200 119.911,65.200 119.530 C 65.200 118.613,66.040 116.800,66.464 116.800 C 66.649 116.800,66.800 116.555,66.800 116.256 C 66.800 115.957,67.250 115.049,67.800 114.238 C 68.350 113.428,68.800 112.566,68.800 112.324 C 68.800 112.081,69.475 110.897,70.300 109.692 C 71.125 108.486,72.123 106.962,72.518 106.304 C 72.913 105.646,73.498 104.845,73.818 104.525 C 74.138 104.205,74.400 103.686,74.400 103.371 C 74.400 103.057,74.641 102.800,74.936 102.800 C 75.230 102.800,75.677 102.350,75.927 101.800 C 76.178 101.250,76.657 100.800,76.991 100.800 C 77.363 100.800,77.600 100.435,77.600 99.862 C 77.600 99.346,77.981 98.581,78.446 98.162 C 78.911 97.743,79.447 96.995,79.636 96.500 C 79.825 96.005,80.255 95.600,80.590 95.600 C 80.926 95.600,81.200 95.362,81.200 95.072 C 81.200 94.782,81.650 94.153,82.200 93.675 C 82.750 93.197,83.200 92.636,83.200 92.430 C 83.200 92.223,83.560 91.940,84.000 91.800 C 84.440 91.660,84.800 91.300,84.800 91.000 C 84.800 90.700,85.160 90.340,85.600 90.200 C 86.040 90.060,86.400 89.684,86.400 89.363 C 86.400 89.043,86.850 88.609,87.400 88.400 C 87.950 88.191,88.400 87.757,88.400 87.437 C 88.400 87.116,88.751 86.743,89.180 86.606 C 89.608 86.470,90.070 86.008,90.206 85.580 C 90.343 85.151,90.700 84.800,91.000 84.800 C 91.300 84.800,91.660 84.440,91.800 84.000 C 91.940 83.560,92.208 83.200,92.395 83.200 C 92.583 83.200,93.547 82.390,94.537 81.400 C 95.527 80.410,96.460 79.600,96.611 79.600 C 96.761 79.600,97.419 79.150,98.073 78.600 C 98.727 78.050,99.608 77.600,100.031 77.600 C 100.454 77.600,100.800 77.336,100.800 77.014 C 100.800 76.692,101.174 76.228,101.630 75.984 C 102.087 75.739,102.762 75.279,103.130 74.960 C 105.626 72.799,106.176 72.400,106.655 72.400 C 106.951 72.400,107.418 72.040,107.693 71.600 C 107.968 71.160,108.405 70.800,108.666 70.800 C 108.926 70.800,109.673 70.350,110.327 69.800 C 110.981 69.250,111.817 68.800,112.184 68.800 C 112.552 68.800,113.443 68.350,114.164 67.800 C 114.886 67.250,115.700 66.800,115.975 66.800 C 116.249 66.800,116.931 66.440,117.491 66.000 C 118.050 65.560,118.906 65.200,119.392 65.200 C 119.878 65.200,120.599 64.844,120.993 64.408 C 121.387 63.972,122.300 63.505,123.020 63.370 C 123.741 63.235,124.699 62.781,125.149 62.362 C 125.665 61.881,126.546 61.600,127.537 61.600 C 128.740 61.600,129.153 61.423,129.305 60.843 C 129.443 60.314,130.025 59.999,131.244 59.793 C 132.202 59.631,133.169 59.252,133.393 58.952 C 133.617 58.651,134.700 58.292,135.800 58.154 C 136.900 58.016,138.016 57.633,138.280 57.302 C 138.567 56.943,139.800 56.593,141.339 56.434 C 142.757 56.287,144.225 55.911,144.602 55.598 C 144.979 55.285,147.023 54.805,149.144 54.530 C 151.265 54.256,154.440 53.776,156.200 53.463 C 160.226 52.749,182.888 52.597,188.884 53.244 " stroke="none" fill="#ffffff" fill-rule="evenodd"></path></g></svg>